<svg width="1392" height="717" viewBox="0 0 1392 717" fill="none" xmlns="http://www.w3.org/2000/svg">
<rect width="1392" height="717" fill="#F1F0E9"/>
<path opacity="0.2" d="M1291.72 313.393C1271.21 290.546 1244.66 274.433 1214.97 266.857L1211.47 265.956L1210.93 262.408C1209.36 252.728 1207.01 243.409 1203.93 234.751C1182.15 173.245 1123.5 132 1058.04 132C1025.4 132 994.202 142.041 967.835 160.919L964.878 163.024L961.801 161.16C930.487 142.101 894.647 132 858.143 132C787.67 132 721.904 169.818 686.486 230.723C681.297 239.682 676.772 249.181 673.031 258.921L671.764 262.168L668.325 262.408C628.382 265.114 590.129 283.692 563.4 313.453C537.998 341.711 524 378.267 524 416.205C524 454.143 537.998 490.698 563.4 519.016C590.37 549.018 628.985 567.596 669.35 570.061L671.402 570.181L671.583 570.362H792.98L794.549 572.947C796.902 576.735 798.169 581.064 798.169 585.393V587.196L797.626 588.279C794.609 594.652 782.843 605.294 773.19 611.787V657H804.564C848.429 657 890.484 638.302 919.867 605.654C928.797 595.674 936.339 584.791 942.192 573.308L943.7 570.362H1176.3C1220.28 570.362 1262.28 551.663 1291.6 518.956C1317 490.638 1331 454.143 1331 416.205C1331 378.267 1317 341.771 1291.6 313.453L1291.72 313.393ZM952.027 279.123L952.208 277.379C952.992 268.3 954.923 259.342 957.94 250.804C959.75 245.634 962.043 240.403 964.878 235.353L968.68 228.318L973.808 234.451C979.118 240.824 983.764 247.498 988.048 254.893C990.461 258.981 992.754 263.491 995.047 268.541L995.952 270.345C996.917 271.968 997.641 273.712 998.184 275.816C998.727 277.62 998.968 279.664 998.968 281.768C998.968 294.755 988.41 305.276 975.437 305.276C962.465 305.276 952.268 295.296 951.906 282.49V281.407C951.906 280.626 951.906 279.844 952.027 279.002V279.123ZM1255.58 486.79C1245.5 497.973 1233.26 506.811 1219.74 512.823C1206.22 518.836 1191.5 522.022 1176.42 522.022H910.515L904.783 538.136C900.198 551.122 893.199 562.967 883.847 573.428C875.46 582.747 865.565 590.443 854.342 596.335L845.593 600.965L846.438 591.165C846.559 589.541 846.619 587.617 846.619 585.333C846.619 561.704 834.974 539.639 815.485 526.291L809.271 522.022H681.056H678.884C648.715 522.022 619.814 509.156 599.662 486.79C582.225 467.25 572.571 442.178 572.571 416.145C572.571 390.111 582.164 365.039 599.602 345.619C619.754 323.133 648.655 310.267 678.823 310.267C681.538 310.267 684.254 310.387 687.572 310.627L708.026 312.311L713.094 292.53C716.534 279.123 721.723 266.497 728.48 254.893C755.27 208.838 804.987 180.279 858.204 180.279C881.856 180.279 904.421 185.57 925.177 195.972L930.547 198.677L927.349 203.728C921.074 213.648 915.946 224.109 912.205 234.811C907.8 247.197 905.025 260.003 903.939 272.93C903.516 276.116 903.335 279.123 903.335 281.948C903.335 282.49 903.335 283.391 903.396 284.474C904.783 323.314 936.4 353.676 975.317 353.676C1014.23 353.676 1047.3 321.51 1047.3 281.948C1047.3 275.696 1046.51 269.383 1044.82 263.25C1043.44 258.019 1041.32 252.909 1038.73 248.039L1038.55 247.738C1035.71 241.605 1032.82 235.894 1029.86 230.903C1023.53 219.961 1016.16 209.68 1008.02 200.301L1003.49 195.07L1009.71 191.943C1024.85 184.247 1041.08 180.339 1058.04 180.339C1103.05 180.339 1143.35 208.718 1158.32 250.985C1162.3 262.168 1164.29 274.012 1164.29 286.277V308.884L1186.31 310.868C1199.59 312.07 1212.32 315.738 1224.2 321.75C1236.09 327.703 1246.59 335.759 1255.52 345.68C1272.96 365.099 1282.55 390.171 1282.55 416.265C1282.55 442.358 1272.96 467.49 1255.46 486.91L1255.58 486.79Z" fill="#AAD5B8"/>
</svg>
