<svg width="100" height="100" viewBox="0 0 100 100" fill="none" xmlns="http://www.w3.org/2000/svg">
<path d="M81.0929 42.7899C79.3135 40.8011 77.0107 39.3985 74.4357 38.7391L74.1321 38.6606L74.085 38.3518C73.949 37.5092 73.7449 36.6979 73.4779 35.9443C71.5886 30.5903 66.5015 27 60.823 27C57.9916 27 55.2858 27.874 52.9987 29.5174L52.7422 29.7006L52.4753 29.5383C49.7591 27.8793 46.6503 27 43.4839 27C37.371 27 31.6664 30.292 28.5942 35.5936C28.1441 36.3735 27.7516 37.2004 27.4271 38.0482L27.3172 38.3308L27.0189 38.3518C23.5542 38.5873 20.2361 40.2045 17.9176 42.7951C15.7142 45.2549 14.5 48.437 14.5 51.7394C14.5 55.0419 15.7142 58.2239 17.9176 60.689C20.257 63.3006 23.6065 64.9178 27.1078 65.1323L27.2858 65.1428L27.3015 65.1585H37.8316L37.9677 65.3835C38.1718 65.7133 38.2817 66.0901 38.2817 66.4669V66.6239L38.2346 66.7181C37.9729 67.2729 36.9523 68.1993 36.115 68.7645V72.7002H38.8364C42.6413 72.7002 46.2892 71.0725 48.8379 68.2307C49.6125 67.3619 50.2667 66.4146 50.7744 65.415L50.9052 65.1585H71.0809C74.8963 65.1585 78.5389 63.5308 81.0824 60.6837C83.2858 58.2187 84.5 55.0419 84.5 51.7394C84.5 48.437 83.2858 45.2602 81.0824 42.7951L81.0929 42.7899ZM51.6275 39.8067L51.6432 39.655C51.7112 38.8647 51.8787 38.0849 52.1404 37.3417C52.2974 36.8916 52.4963 36.4363 52.7422 35.9966L53.072 35.3843L53.5168 35.9181C53.9774 36.4729 54.3804 37.0538 54.752 37.6976C54.9613 38.0535 55.1602 38.446 55.3591 38.8856L55.4376 39.0426C55.5213 39.1839 55.5841 39.3357 55.6312 39.5189C55.6783 39.6759 55.6992 39.8538 55.6992 40.037C55.6992 41.1675 54.7834 42.0834 53.6581 42.0834C52.5329 42.0834 51.6484 41.2146 51.617 40.0998V40.0056C51.617 39.9376 51.617 39.8695 51.6275 39.7963V39.8067ZM77.9579 57.8837C77.0839 58.8572 76.0215 59.6265 74.8492 60.1499C73.6768 60.6733 72.3998 60.9507 71.0914 60.9507H48.0267L47.5295 62.3533C47.1318 63.4837 46.5247 64.5148 45.7135 65.4254C44.986 66.2366 44.1277 66.9065 43.1542 67.4194L42.3953 67.8224L42.4686 66.9693C42.4791 66.828 42.4843 66.6606 42.4843 66.4617C42.4843 64.4049 41.4742 62.4841 39.7837 61.3222L39.2447 60.9507H28.1232H27.9348C25.3179 60.9507 22.811 59.8307 21.063 57.8837C19.5505 56.1828 18.7131 54.0004 18.7131 51.7342C18.7131 49.468 19.5452 47.2856 21.0578 45.5951C22.8058 43.6378 25.3127 42.5178 27.9295 42.5178C28.165 42.5178 28.4006 42.5282 28.6884 42.5492L30.4626 42.6957L30.9022 40.9738C31.2006 39.8067 31.6507 38.7077 32.2368 37.6976C34.5606 33.6886 38.8731 31.2026 43.4892 31.2026C45.5408 31.2026 47.4981 31.6632 49.2985 32.5686L49.7643 32.8041L49.4869 33.2437C48.9426 34.1073 48.4978 35.0179 48.1733 35.9495C47.7912 37.0277 47.5505 38.1424 47.4563 39.2677C47.4196 39.545 47.4039 39.8067 47.4039 40.0527C47.4039 40.0998 47.4039 40.1783 47.4092 40.2725C47.5295 43.6535 50.272 46.2964 53.6477 46.2964C57.0234 46.2964 59.8914 43.4964 59.8914 40.0527C59.8914 39.5084 59.8234 38.9589 59.6768 38.425C59.5564 37.9697 59.3733 37.5249 59.1482 37.1009L59.1325 37.0748C58.8865 36.5409 58.6353 36.0437 58.3789 35.6093C57.8293 34.6568 57.1908 33.7619 56.4843 32.9454L56.0918 32.4901L56.6308 32.2179C57.9445 31.548 59.3523 31.2078 60.823 31.2078C64.7273 31.2078 68.2234 33.6781 69.5213 37.3574C69.8667 38.3308 70.0394 39.3619 70.0394 40.4295V42.3974L71.9497 42.5701C73.1011 42.6748 74.2054 42.994 75.2364 43.5174C76.2675 44.0355 77.1781 44.7368 77.9527 45.6004C79.4652 47.2908 80.2974 49.4733 80.2974 51.7447C80.2974 54.0161 79.4652 56.2037 77.9475 57.8942L77.9579 57.8837Z" fill="#0C1B33"/>
</svg>
